# xmcd
# 
# Track frame offsets:
#     150
#     19322
#     39720
#     58892
#     79290
# 
# Disc length: 1310
# 
# Revision: 2
# Processed by: cddbd v1.5.2PL0 Copyright (c) Steve Scherf et al.
# Submitted via: fre:ac v1.0.17
# 
DISCID=41051c05
DTITLE=瀬口侑希 - 海峡
DYEAR=2005
DGENRE=Blues
TTITLE0=海峡
TTITLE1=四季ありて
TTITLE2=海峡【オリジナル・カラオケ】
TTITLE3=四季ありて【オリジナル・カラオケ】
TTITLE4=海峡【一般用カラオケ】
EXTD=
EXTT0=
EXTT1=
EXTT2=
EXTT3=
EXTT4=
PLAYORDER=
